<svg width="256" height="256" viewBox="0 0 256 256" fill="none" xmlns="http://www.w3.org/2000/svg">
<path d="M70.0527 53.2183C82.5192 52.1631 90.7818 54.933 94.8407 61.5279C98.3197 65.2211 99.4794 71.0246 98.3197 78.9386C97.0441 83.0538 94.8697 86.3513 91.7966 88.831C87.9117 92.9462 81.5335 94.7928 72.662 94.3707C65.82 93.21 60.7464 90.4401 57.4413 86.0611C54.1363 82.4734 52.6867 77.1975 53.0926 70.2332C54.4262 65.1156 56.8905 61.0267 60.4855 57.9667L70.0527 53.2183Z" fill="#499FFB"/>
<path d="M174.423 53.2183H185.73C190.253 54.4318 193.876 56.4103 196.602 59.1537C201.124 62.6886 203.154 68.4922 202.69 76.5644C201.414 82.79 198.37 87.4064 193.558 90.4137C189.615 93.421 183.816 94.74 176.163 94.3707C170.538 93.1572 166.044 90.9149 162.681 87.6439C157.869 84.109 156.129 77.7778 157.463 68.6504C159.086 63.269 162.131 59.1801 166.595 56.3839L174.423 53.2183Z" fill="#499FFB"/>
<path d="M111.801 120.487H143.982C147.925 121.7 150.969 123.679 153.114 126.422C154.97 128.691 155.839 131.856 155.723 135.919L153.114 142.25L140.068 155.704V158.078C141.981 164.514 145.315 169.658 150.07 173.51C155.694 178.68 164.102 181.318 175.293 181.424C185.498 179.894 193.181 176.069 198.341 169.949L204.429 159.661L205.299 148.581L210.953 141.854C212.982 140.535 216.171 140.271 220.52 141.063L227.043 145.415C228.783 147.526 229.362 150.691 228.783 154.912L227.913 155.704L227.043 164.409L221.825 176.28C218.23 181.978 213.736 186.858 208.343 190.921C202.139 195.563 194.601 198.993 185.73 201.209L181.381 202H163.986C150.07 199.626 139.198 194.482 131.37 186.568L128.326 183.007L124.412 185.776L122.238 188.546C116.208 193.875 108.67 197.832 99.6243 200.417L92.6663 202H74.4015C59.4998 199.204 48.048 193.268 40.0463 184.194C31.8126 176.121 27.4639 164.514 27 149.372C27.8698 145.943 29.7542 143.437 32.6534 141.854C34.8568 140.43 38.3358 140.166 43.0904 141.063L48.7438 145.415L50.4833 148.581V155.704L53.0926 163.617C55.5859 168.26 58.9199 172.085 63.0947 175.093C68.4292 179.736 76.5469 181.846 87.4478 181.424C96.7252 179.841 103.828 176.28 108.757 170.74C112.584 167.1 114.903 162.087 115.715 155.704L102.668 142.25C100.813 139.981 99.9432 136.816 100.059 132.753C100.929 128.269 103.103 124.971 106.582 122.861L111.801 120.487Z" fill="#499FFB"/>
<path d="M70.0527 53.2183C82.5192 52.1631 90.7818 54.933 94.8407 61.5279C98.3197 65.2211 99.4794 71.0246 98.3197 78.9386C97.0441 83.0538 94.8697 86.3513 91.7966 88.831C87.9117 92.9462 81.5335 94.7928 72.662 94.3707C65.82 93.21 60.7464 90.4401 57.4413 86.0611C54.1363 82.4734 52.6867 77.1975 53.0926 70.2332C54.4262 65.1156 56.8905 61.0267 60.4855 57.9667L70.0527 53.2183Z" stroke="#499FFB"/>
<path d="M174.423 53.2183H185.73C190.253 54.4318 193.876 56.4103 196.602 59.1537C201.124 62.6886 203.154 68.4922 202.69 76.5644C201.414 82.79 198.37 87.4064 193.558 90.4137C189.615 93.421 183.816 94.74 176.163 94.3707C170.538 93.1572 166.044 90.9149 162.681 87.6439C157.869 84.109 156.129 77.7778 157.463 68.6504C159.086 63.269 162.131 59.1801 166.595 56.3839L174.423 53.2183Z" stroke="#499FFB"/>
<path d="M111.801 120.487H143.982C147.925 121.7 150.969 123.679 153.114 126.422C154.97 128.691 155.839 131.856 155.723 135.919L153.114 142.25L140.068 155.704V158.078C141.981 164.514 145.315 169.658 150.07 173.51C155.694 178.68 164.102 181.318 175.293 181.424C185.498 179.894 193.181 176.069 198.341 169.949L204.429 159.661L205.299 148.581L210.953 141.854C212.982 140.535 216.171 140.271 220.52 141.063L227.043 145.415C228.783 147.526 229.362 150.691 228.783 154.912L227.913 155.704L227.043 164.409L221.825 176.28C218.23 181.978 213.736 186.858 208.343 190.921C202.139 195.563 194.601 198.993 185.73 201.209L181.381 202H163.986C150.07 199.626 139.198 194.482 131.37 186.568L128.326 183.007L124.412 185.776L122.238 188.546C116.208 193.875 108.67 197.832 99.6243 200.417L92.6663 202H74.4015C59.4998 199.204 48.048 193.268 40.0463 184.194C31.8126 176.121 27.4639 164.514 27 149.372C27.8698 145.943 29.7542 143.437 32.6534 141.854C34.8568 140.43 38.3358 140.166 43.0904 141.063L48.7438 145.415L50.4833 148.581V155.704L53.0926 163.617C55.5859 168.26 58.9199 172.085 63.0947 175.093C68.4292 179.736 76.5469 181.846 87.4478 181.424C96.7252 179.841 103.828 176.28 108.757 170.74C112.584 167.1 114.903 162.087 115.715 155.704L102.668 142.25C100.813 139.981 99.9432 136.816 100.059 132.753C100.929 128.269 103.103 124.971 106.582 122.861L111.801 120.487Z" stroke="#499FFB"/>
</svg>
